# xmcd
#
# Track frame offsets: 
#        150
#        18611
#        37545
#        56188
#        73011
#        94167
#        117795
#        135913
#        154560
#        172845
#
# Disc length: 2460 seconds
#
# Revision: 2
# Processed by: cddbd v1.5.1PL2 Copyright (c) Steve Scherf et al.
# Submitted via: ExactAudioCopy v0.95b4
#
DISCID=73099a0a
DTITLE=K.T. Oslin - Super Hits
DYEAR=1997
DGENRE=Country
TTITLE0=Do Ya'
TTITLE1=80's Ladies
TTITLE2=I'll Always Come Back
TTITLE3=Two Hearts (Original Version)
TTITLE4=Hold Me
TTITLE5=Money
TTITLE6=Didn't Expect It To Go Down This Way
TTITLE7=New Way Home (Original Version)
TTITLE8=Silver Tongue And Goldplated Lies
TTITLE9=My Baby Came Back
EXTD=
EXTT0=
EXTT1=
EXTT2=
EXTT3=
EXTT4=
EXTT5=
EXTT6=
EXTT7=
EXTT8=
EXTT9=
PLAYORDER=
